<svg version="1.0" xmlns="http://www.w3.org/2000/svg" width="933.333" height="933.333" viewBox="0 0 700 700"><path d="M0 350v350h700V0H0v350zm290.4-66.7c64.4 160.8 72.3 179.7 74.1 179.5 1.7-.3 11.6-26.5 68-179.8l66-179.5 88.8-.3 88.8-.2-.3 4.2-.3 4.3-5.5.2c-10.5.5-25.6 2.4-33.8 4.3-15.8 3.7-25.1 9.8-29.3 19.3l-2.4 5.2-.3 204.5c-.2 188-.1 204.9 1.4 209.8 5 15.8 22.2 23.2 60.2 25.8l10.2.7v8.7H436v-8.7l9.3-.7c27.9-2 44.8-7.9 51.9-18.2 6.1-8.8 5.8 3.1 5.8-214.2V149.9l-2.2.3c-2 .3-11 24.1-83.7 220.5L335.7 591h-24.5l-2.6-6.3c-1.5-3.4-42.4-102.5-91-220.2-85.1-206.4-88.3-214-91-214.3l-2.7-.3.4 173.8c.3 172.5.3 173.9 2.5 184.9 7.8 40.7 27.3 60 69.7 69.2 5 1.1 11.1 2.3 13.8 2.7l4.7.6v8.9H21v-8.7l10-1.7c33-5.8 53.6-18.8 64.4-40.6 5.3-10.8 8.9-24.1 10.6-38.6.8-7 1-56.3.8-170.4l-.3-160.5-2.8-8c-3.8-10.8-7.8-17.5-14.9-25.1C76.2 123 55.6 114 33.6 112.5c-12.7-.9-12.6-.9-12.6-5.5v-4l98.7.2 98.6.3 72.1 179.8z"/></svg>